<svg width="24" height="24" viewBox="0 0 24 24" fill="none" xmlns="http://www.w3.org/2000/svg">
<path d="M8.11111 17.5558C7.19063 17.5558 6.44444 18.302 6.44444 19.2224C6.44444 20.1429 7.19063 20.8891 8.11111 20.8891C9.0316 20.8891 9.77778 20.1429 9.77778 19.2224C9.77778 18.302 9.0316 17.5558 8.11111 17.5558ZM18.1111 17.5558C17.1906 17.5558 16.4444 18.302 16.4444 19.2224C16.4444 20.1429 17.1906 20.8891 18.1111 20.8891C19.0316 20.8891 19.7778 20.1429 19.7778 19.2224C19.7778 18.302 19.0316 17.5558 18.1111 17.5558ZM21.7753 4.66459C21.5632 4.38359 21.2398 4.22244 20.8877 4.22244H6.23462L6.15201 3.78876C6.07715 3.39567 5.73344 3.11133 5.33333 3.11133H2.83333C2.37313 3.11133 2 3.48438 2 3.94466C2 4.40487 2.37313 4.77799 2.83333 4.77799H4.64378L6.73694 15.7672C6.81181 16.1603 7.15552 16.4447 7.55563 16.4447H18.9444C19.4047 16.4447 19.7778 16.0715 19.7778 15.6113C19.7778 15.1511 19.4047 14.778 18.9444 14.778H8.2451L7.92767 13.1113H18.9834C19.4794 13.1113 19.9152 12.7825 20.0516 12.3057L21.9565 5.639C22.0531 5.30046 21.9869 4.94563 21.7753 4.66459ZM18.5642 11.4447H7.61021L6.55208 5.88911H20.1517L18.5642 11.4447Z" fill="#7C8C9E"/>
</svg>
