<svg width="16" height="16" viewBox="0 0 16 16" fill="none" xmlns="http://www.w3.org/2000/svg">
<path d="M1.5 10.1667C1.5 9.68802 1.88802 9.3 2.36667 9.3H5.83333C6.31198 9.3 6.7 9.68802 6.7 10.1667V13.6333C6.7 14.112 6.31198 14.5 5.83333 14.5H2.36667C1.88802 14.5 1.5 14.112 1.5 13.6333V10.1667Z" fill="#B6C2D1"/>
<path d="M1.5 2.36667C1.5 1.88802 1.88802 1.5 2.36667 1.5H5.83333C6.31198 1.5 6.7 1.88802 6.7 2.36667V5.83333C6.7 6.31198 6.31198 6.7 5.83333 6.7H2.36667C1.88802 6.7 1.5 6.31198 1.5 5.83333V2.36667Z" fill="#B6C2D1"/>
<path d="M9.3 10.1667C9.3 9.68802 9.68802 9.3 10.1667 9.3H13.6333C14.112 9.3 14.5 9.68802 14.5 10.1667V13.6333C14.5 14.112 14.112 14.5 13.6333 14.5H10.1667C9.68802 14.5 9.3 14.112 9.3 13.6333V10.1667Z" fill="#B6C2D1"/>
<path d="M9.3 2.36667C9.3 1.88802 9.68802 1.5 10.1667 1.5H13.6333C14.112 1.5 14.5 1.88802 14.5 2.36667V5.83333C14.5 6.31198 14.112 6.7 13.6333 6.7H10.1667C9.68802 6.7 9.3 6.31198 9.3 5.83333V2.36667Z" fill="#B6C2D1"/>
</svg>
