<svg width="24" height="24" viewBox="0 0 24 24" fill="none" xmlns="http://www.w3.org/2000/svg">
<g clip-path="url(#clip0)">
<path fill-rule="evenodd" clip-rule="evenodd" d="M24.0078 12.0039C24.0078 5.37484 18.6329 0 12.0039 0C5.37484 0 0 5.37484 0 12.0039C0 17.9949 4.38903 22.9612 10.1285 23.8627V15.4746H7.07977V12.0039H10.1285V9.35866C10.1285 6.35048 11.9212 4.68773 14.6626 4.68773C15.9759 4.68773 17.35 4.92236 17.35 4.92236V7.87654H15.8358C14.3453 7.87654 13.8793 8.8016 13.8793 9.75196V12.0038H17.2082L16.6764 15.4745H13.8792V23.8626C19.6187 22.9627 24.0077 17.9964 24.0077 12.0038L24.0078 12.0039Z" fill="#7C8C9E"/>
</g>
<defs>
<clipPath id="clip0">
<rect width="24" height="24" fill="white"/>
</clipPath>
</defs>
</svg>
