<svg width="20" height="20" viewBox="0 0 20 20" fill="none" xmlns="http://www.w3.org/2000/svg">
<path d="M3.85976 4.34249C5.33107 3.06898 7.62638 3.27576 9.02586 4.72053L9.385 4.37266L9.02586 4.72054L9.64108 5.35566L10.0002 5.72642L10.3594 5.35566L10.9746 4.72054L10.9746 4.72053C12.374 3.27579 14.6692 3.06898 16.1406 4.34241C17.8628 5.83301 17.9503 8.49691 16.3937 10.1049L16.3936 10.1051L10.3577 16.346L10.3576 16.346C10.1591 16.5513 9.83839 16.5513 9.63985 16.346L9.63984 16.346L3.60404 10.1052C2.05009 8.49724 2.13757 5.83317 3.85976 4.34249ZM3.85976 4.34249L3.53253 3.96444L3.85976 4.34249Z" stroke="#B6C2D1"/>
</svg>
