<svg width="24" height="24" viewBox="0 0 24 24" fill="none" xmlns="http://www.w3.org/2000/svg">
<path d="M16.9482 0.0753853C14.7402 -0.0276129 9.27123 -0.0226129 7.06123 0.0753853C5.11923 0.166384 3.40623 0.635375 2.02523 2.01635C-0.282773 4.32431 0.0122273 7.43426 0.0122273 11.9952C0.0122273 16.6631 -0.247773 19.701 2.02523 21.974C4.34223 24.29 7.49723 23.987 12.0042 23.987C16.6282 23.987 18.2242 23.99 19.8592 23.357C22.0822 22.494 23.7602 20.507 23.9242 16.9381C24.0282 14.7291 24.0222 9.26122 23.9242 7.05126C23.7262 2.83834 21.4652 0.283382 16.9482 0.0753853ZM20.4432 20.447C18.9302 21.96 16.8312 21.825 11.9752 21.825C6.97523 21.825 4.97023 21.899 3.50723 20.432C1.82223 18.7551 2.12723 16.0621 2.12723 11.9792C2.12723 6.45427 1.56023 2.47534 7.10523 2.19135C7.12456 2.19067 7.14368 2.18999 7.16261 2.18932C8.39126 2.1459 8.80289 2.13135 11.9612 2.13135L12.0062 2.16135C17.3352 2.16135 21.5162 1.60336 21.7672 7.14726C21.8242 8.41224 21.8372 8.79223 21.8372 11.9942C21.8362 16.9361 21.9302 18.9531 20.4432 20.447Z" fill="#7C8C9E"/>
<path d="M20.4432 20.447C18.9302 21.96 16.8312 21.825 11.9752 21.825C6.97523 21.825 4.97023 21.899 3.50723 20.432C1.82223 18.7551 2.12723 16.0621 2.12723 11.9792C2.12723 6.45427 1.56023 2.47534 7.10523 2.19135L7.16261 2.18932C8.39126 2.1459 8.80289 2.13135 11.9612 2.13135L12.0062 2.16135C17.3352 2.16135 21.5162 1.60336 21.7672 7.14726C21.8242 8.41224 21.8372 8.79223 21.8372 11.9942C21.8362 16.9361 21.9302 18.9531 20.4432 20.447Z" fill="#7C8C9E"/>
<path d="M12 6C8.68431 6 6 8.68724 6 12C6 15.3157 8.68724 18 12 18C15.3157 18 18 15.3128 18 12C18 8.68431 15.3128 6 12 6ZM12 15.8944C9.84768 15.8944 8.10555 14.1513 8.10555 12C8.10555 9.84865 9.84865 8.10555 12 8.10555C14.1513 8.10555 15.8944 9.84865 15.8944 12C15.8954 14.1513 14.1523 15.8944 12 15.8944Z" fill="#F6F7FC"/>
<path d="M16.9482 0.0753853C14.7402 -0.0276129 9.27123 -0.0226129 7.06123 0.0753853C5.11923 0.166384 3.40623 0.635375 2.02523 2.01635C-0.282773 4.32431 0.0122273 7.43426 0.0122273 11.9952C0.0122273 16.6631 -0.247773 19.701 2.02523 21.974C4.34223 24.29 7.49723 23.987 12.0042 23.987C16.6282 23.987 18.2242 23.99 19.8592 23.357C22.0822 22.494 23.7602 20.507 23.9242 16.9381C24.0282 14.7291 24.0222 9.26122 23.9242 7.05126C23.7262 2.83834 21.4652 0.283382 16.9482 0.0753853ZM20.4432 20.447C18.9302 21.96 16.8312 21.825 11.9752 21.825C6.97523 21.825 4.97023 21.899 3.50723 20.432C1.82223 18.7551 2.12723 16.0621 2.12723 11.9792C2.12723 6.45427 1.56023 2.47534 7.10523 2.19135C8.37923 2.14635 8.75423 2.13135 11.9612 2.13135L12.0062 2.16135C17.3352 2.16135 21.5162 1.60336 21.7672 7.14726C21.8242 8.41224 21.8372 8.79223 21.8372 11.9942C21.8362 16.9361 21.9302 18.9531 20.4432 20.447Z" fill="#F6F7FC"/>
<path d="M18 7.5C18.8284 7.5 19.5 6.82843 19.5 6C19.5 5.17157 18.8284 4.5 18 4.5C17.1716 4.5 16.5 5.17157 16.5 6C16.5 6.82843 17.1716 7.5 18 7.5Z" fill="#F6F7FC"/>
</svg>
