<svg width="20" height="20" viewBox="0 0 20 20" fill="none" xmlns="http://www.w3.org/2000/svg">
<path d="M16.0592 3.94043H3.94066C2.82518 3.94043 1.9209 4.84472 1.9209 5.96019V14.0392C1.9209 15.1547 2.82518 16.059 3.94066 16.059H16.0592C17.1748 16.059 18.079 15.1547 18.079 14.0392V5.96019C18.079 4.84472 17.1748 3.94043 16.0592 3.94043ZM3.94066 5.45525H16.0592C16.3377 5.45525 16.5642 5.68178 16.5642 5.96019V6.6596L11.3018 11.0456C10.57 11.6541 9.42893 11.6536 8.69913 11.0461L3.43572 6.6596V5.96019C3.43572 5.68178 3.66225 5.45525 3.94066 5.45525ZM16.0592 14.5442H3.94066C3.66225 14.5442 3.43572 14.3177 3.43572 14.0392V8.63202L7.72967 12.2103C8.36678 12.7399 9.17251 13.0318 9.99995 13.0318C10.8274 13.0318 11.6331 12.7399 12.2712 12.2098L16.5642 8.63209V14.0392C16.5642 14.3177 16.3377 14.5442 16.0592 14.5442Z" fill="#B6C2D1"/>
</svg>
