<svg width="22" height="23" viewBox="0 0 22 23" fill="none" xmlns="http://www.w3.org/2000/svg">
<circle cx="11" cy="11.8374" r="11" fill="#ECB13F"/>
<path d="M8.73135 17.198C8.5877 17.4568 8.37223 17.6357 8.08493 17.7347C7.80519 17.8412 7.48387 17.8945 7.12097 17.8945C6.76563 17.8945 6.50479 17.8869 6.33846 17.8717C6.17213 17.8641 5.99446 17.8336 5.80545 17.7804C5.624 17.7347 5.48035 17.67 5.3745 17.5862C5.13256 17.3807 5.0116 17.061 5.0116 16.6272C5.0116 16.003 5.17037 15.6909 5.48791 15.6909C5.58619 15.6909 5.6618 15.6757 5.71472 15.6452C5.85837 15.5767 5.93019 15.3407 5.93019 14.9373V8.98862C5.93019 8.82116 6.14567 8.6575 6.57662 8.49765C7.01512 8.33019 7.48009 8.24646 7.97152 8.24646C8.72001 8.24646 9.09425 8.42534 9.09425 8.7831V15.0972C9.09425 15.6224 9.07157 16.041 9.02621 16.3531C8.98085 16.6652 8.88256 16.9469 8.73135 17.198Z" fill="#333333"/>
<path d="M16.15 10.5643C16.15 10.7013 15.9496 11.0172 15.5489 11.512C15.1482 12.0067 14.5471 12.6766 13.7457 13.5215H16.1386C16.2218 13.5215 16.2898 13.6357 16.3427 13.864C16.4032 14.0848 16.4335 14.4007 16.4335 14.8117C16.4335 15.2151 16.3843 15.5729 16.286 15.885C16.1953 16.1971 16.0706 16.3531 15.9118 16.3531H10.3889C10.1696 16.3531 10.0108 16.1324 9.91256 15.6909C9.82183 15.2494 9.77647 14.7698 9.77647 14.2522C9.77647 14.1381 9.98816 13.826 10.4116 13.316C10.8349 12.806 11.4738 12.0943 12.3281 11.1808H10.128C9.9239 11.1808 9.82183 10.8497 9.82183 10.1875C9.82183 9.72317 9.87098 9.28548 9.96926 8.87444C10.0675 8.45579 10.1923 8.24646 10.3435 8.24646H15.5716C15.9572 8.24646 16.15 9.01907 16.15 10.5643Z" fill="#333333"/>
</svg>
