<svg width="20" height="20" viewBox="0 0 20 20" fill="none" xmlns="http://www.w3.org/2000/svg">
<g clip-path="url(#clip0)">
<path d="M12.9591 8.78844C14.0641 8.78844 15.1027 9.21852 15.8832 9.99898L16.6484 10.7635C18.2114 10.0705 19.4316 8.68141 19.8366 6.9882C20.0603 6.05375 20.0452 5.14914 19.845 4.31617C19.743 3.89129 19.2032 3.74922 18.8942 4.0582L16.2028 6.7498H13.2495V3.79652L15.941 1.10504C16.2501 0.795977 16.108 0.256328 15.683 0.154258C14.8502 -0.0459375 13.9455 -0.0609766 13.011 0.162656C10.8507 0.679375 9.1677 2.51496 8.82172 4.70906C8.77051 5.03355 8.75723 5.35125 8.76074 5.66496L11.9945 8.90172C12.3105 8.82687 12.635 8.78844 12.9591 8.78844ZM14.9998 10.8833C14.0952 9.97871 12.7507 9.80558 11.664 10.3396L7.49977 6.17141V3.74953L2.49977 -0.000468768L-0.000234343 2.49953L3.74977 7.49953H6.17164L10.3398 11.6637C9.80582 12.7505 9.97895 14.0949 10.8836 14.9995L15.4539 19.5747C16.0252 20.1411 16.948 20.1411 17.5144 19.5747L19.575 17.5142C20.1414 16.9478 20.1414 16.0249 19.575 15.4536L14.9998 10.8833ZM8.90129 11.9936L6.5882 9.68262L0.772227 15.4986C-0.257734 16.5286 -0.257734 18.1971 0.772227 19.2271C1.28723 19.742 1.96129 19.9995 2.63648 19.9995C3.31168 19.9995 3.98574 19.742 4.50074 19.2271L9.15344 14.5743C8.80707 13.763 8.69477 12.8649 8.90129 11.9936ZM2.49977 18.437C1.98203 18.437 1.56227 18.0173 1.56227 17.4995C1.56227 16.9817 1.98203 16.562 2.49977 16.562C3.0175 16.562 3.43727 16.9817 3.43727 17.4995C3.43727 18.0173 3.0175 18.437 2.49977 18.437Z" fill="#B6C2D1"/>
</g>
<defs>
<clipPath id="clip0">
<rect width="20" height="20" fill="white"/>
</clipPath>
</defs>
</svg>
