<svg width="24" height="24" viewBox="0 0 24 24" fill="none" xmlns="http://www.w3.org/2000/svg">
<path d="M24 4.38603C23.117 4.77764 22.168 5.04232 21.172 5.16136C22.1886 4.55194 22.9693 3.58699 23.3369 2.43725C22.3856 3.00145 21.3318 3.41124 20.2102 3.63211C19.312 2.67515 18.0323 2.07715 16.6162 2.07715C13.8968 2.07715 11.6921 4.28174 11.6921 7.00093C11.6921 7.38684 11.7358 7.76265 11.8197 8.12302C7.72742 7.91768 4.09929 5.95741 1.67076 2.97845C1.24692 3.70568 1.0041 4.5515 1.0041 5.45386C1.0041 7.1621 1.87346 8.66923 3.19464 9.55218C2.38745 9.52664 1.62827 9.30515 0.964337 8.93636C0.963986 8.9569 0.963986 8.97753 0.963986 8.99825C0.963986 11.3839 2.66125 13.3741 4.91377 13.8263C4.50056 13.9389 4.06558 13.999 3.61646 13.999C3.2992 13.999 2.99072 13.9682 2.69014 13.9107C3.31667 15.8669 5.13508 17.2905 7.28972 17.3303C5.60456 18.6508 3.48144 19.438 1.17459 19.438C0.777175 19.438 0.385208 19.4148 0 19.3693C2.17904 20.7663 4.76726 21.5814 7.5479 21.5814C16.6047 21.5814 21.5572 14.0786 21.5572 7.57189C21.5572 7.3584 21.5525 7.14604 21.543 6.93491C22.505 6.24069 23.3398 5.37345 24 4.38603Z" fill="#7C8C9E"/>
</svg>
