<svg width="20" height="20" viewBox="0 0 20 20" fill="none" xmlns="http://www.w3.org/2000/svg">
<path fill-rule="evenodd" clip-rule="evenodd" d="M10.0067 8.7913L6.30979 12.4591C5.97329 12.7932 5.97137 13.3369 6.30551 13.6734C6.63964 14.0099 7.18331 14.0118 7.51981 13.6777L10.0067 11.2083L12.4761 13.6952C12.8102 14.0317 13.3539 14.0336 13.6904 13.6994C14.0269 13.3653 14.0288 12.8216 13.6947 12.4851L10.0067 8.7913Z" fill="#9EA9B9"/>
<path fill-rule="evenodd" clip-rule="evenodd" d="M10.0067 11.2083L6.30979 7.54051C5.97329 7.20637 5.97137 6.6627 6.30551 6.3262C6.63964 5.98969 7.18331 5.98777 7.51981 6.32191L10.0067 8.7913L12.4761 6.30442C12.8102 5.96792 13.3539 5.966 13.6904 6.30014C14.0269 6.63427 14.0288 7.17794 13.6947 7.51444L10.0067 11.2083Z" fill="#9EA9B9"/>
</svg>
