<svg width="20" height="20" viewBox="0 0 20 20" fill="none" xmlns="http://www.w3.org/2000/svg">
<path d="M11.5 14H8.5C8.22388 14 8 14.2238 8 14.5C8 14.7761 8.22388 15 8.5 15H11.5C11.7762 15 12 14.7761 12 14.5C12 14.2238 11.7762 14 11.5 14ZM13 2H7C5.61931 2 4.5 3.11925 4.5 4.5V15.5C4.5 16.8807 5.61931 18 7 18H13C14.3807 18 15.5 16.8807 15.5 15.5V4.5C15.5 3.11925 14.3807 2 13 2ZM13.5 15.5C13.5 15.7757 13.2757 16 13 16H7C6.72431 16 6.5 15.7757 6.5 15.5V4.5C6.5 4.22431 6.72431 4 7 4H8V4.5C8 4.77612 8.22388 5 8.5 5H11.5C11.7762 5 12 4.77612 12 4.5V4H13C13.2757 4 13.5 4.22431 13.5 4.5V15.5Z" fill="#B6C2D1"/>
</svg>
