<svg width="24" height="24" viewBox="0 0 24 24" fill="none" xmlns="http://www.w3.org/2000/svg">
<path fill-rule="evenodd" clip-rule="evenodd" d="M12.0003 5.9752C10.504 5.9752 9.28784 7.19133 9.28784 8.6877C9.28784 10.1841 10.504 11.4002 12.0003 11.4002C13.4967 11.4002 14.7128 10.1841 14.7128 8.6877C14.7128 7.19133 13.4967 5.9752 12.0003 5.9752ZM7.88784 8.6877C7.88784 6.41813 9.73077 4.5752 12.0003 4.5752C14.2699 4.5752 16.1128 6.41813 16.1128 8.6877C16.1128 10.9573 14.2699 12.8002 12.0003 12.8002C9.73077 12.8002 7.88784 10.9573 7.88784 8.6877ZM8.10034 15.5251C6.87514 15.5251 5.87534 16.5249 5.87534 17.7501V18.0251H18.1253V17.7501C18.1253 16.5249 17.1255 15.5251 15.9003 15.5251C14.6615 15.5251 14.2171 15.6398 13.8694 15.7409C13.8363 15.7506 13.8034 15.7603 13.7705 15.77C13.3637 15.8901 12.9494 16.0125 12.0003 16.0125C11.0547 16.0125 10.6398 15.8903 10.2328 15.7704C10.1996 15.7606 10.1664 15.7508 10.1329 15.7411C9.78374 15.6398 9.33756 15.5251 8.10034 15.5251ZM4.47534 17.7501C4.47534 15.7517 6.10195 14.1251 8.10034 14.1251C9.45297 14.1251 10.0321 14.2541 10.523 14.3965C10.5605 14.4074 10.5967 14.4181 10.6323 14.4287C10.9735 14.53 11.2517 14.6125 12.0003 14.6125C12.7521 14.6125 13.0299 14.5299 13.3699 14.4287C13.4052 14.4182 13.4411 14.4075 13.4783 14.3967C13.9685 14.2541 14.5463 14.1251 15.9003 14.1251C17.8987 14.1251 19.5253 15.7517 19.5253 17.7501V19.425H4.47534V17.7501Z" fill="#606F80"/>
</svg>
